<svg width="100" height="100" viewBox="0 0 100 100" fill="none" xmlns="http://www.w3.org/2000/svg">
<path d="M74.0938 76.5685C73.0152 76.5685 72.1406 75.6939 72.1406 74.6154V36.7258C72.1406 35.6473 73.0152 34.7726 74.0938 34.7726C75.1723 34.7726 76.0469 35.6473 76.0469 36.7258V74.6154C76.0469 75.6939 75.1725 76.5685 74.0938 76.5685Z" fill="#BA9256"/>
<path d="M74.0955 85.3627C73.2793 85.3627 72.5318 84.8338 72.2566 84.0666C71.9789 83.2928 72.2297 82.4031 72.8711 81.8885C73.4928 81.3895 74.3805 81.3199 75.0715 81.7176C75.7811 82.1258 76.1694 82.9717 76.0133 83.7756C75.8373 84.6829 75.0223 85.3627 74.0955 85.3627Z" fill="#BA9256"/>
<path d="M65.3633 85.362C64.2848 85.362 63.4102 84.4874 63.4102 83.4089V36.7258C63.4102 35.6473 64.2848 34.7726 65.3633 34.7726C66.4418 34.7726 67.3164 35.6473 67.3164 36.7258V83.4091C67.3164 84.4876 66.442 85.362 65.3633 85.362Z" fill="#BA9256"/>
<path d="M98.0469 28.8295H84.9084V22.4055C84.9084 21.3269 84.0338 20.4523 82.9553 20.4523H81.0006V12.598C81.0006 11.5195 80.126 10.6449 79.0475 10.6449H71.2092V4.95683C71.2092 3.87831 70.3346 3.0037 69.2561 3.0037C68.1775 3.0037 67.3029 3.87831 67.3029 4.95683V10.6449H60.4107C59.3322 10.6449 58.4576 11.5195 58.4576 12.598V20.4523H56.5029C55.4244 20.4523 54.5498 21.3269 54.5498 22.4055V38.6811H41.5904C35.8693 38.6811 31.0139 34.9045 29.3857 29.7135C30.5125 29.8453 31.9672 29.9617 33.5914 29.9617C37.9961 29.9617 43.6461 29.1055 47.3729 25.3789C54.1203 18.6312 51.458 5.58026 51.3412 5.02811C51.1814 4.27167 50.5902 3.68065 49.8338 3.52069C49.2814 3.40389 36.2305 0.741785 29.483 7.48905C28.3668 8.60526 27.5082 9.89394 26.8529 11.2701C26.1977 9.89394 25.3391 8.60526 24.2229 7.48905C17.4754 0.741394 4.42402 3.4037 3.87207 3.52069C3.11563 3.68046 2.52461 4.27167 2.36465 5.02811C2.24805 5.58026 -0.414258 18.6312 6.3332 25.3789C10.0604 29.1061 15.7102 29.9619 20.115 29.9619C22.2658 29.9619 24.1201 29.7578 25.3082 29.584C26.8391 36.3428 32.4826 41.5588 39.4588 42.4518V56.8201H22.0703C20.9918 56.8201 20.1172 57.6947 20.1172 58.7733V93.1877H1.95312C0.874414 93.1877 0 94.0623 0 95.1408C0 96.2194 0.874414 97.094 1.95312 97.094H98.0469C99.1254 97.094 100 96.2194 100 95.1408V30.7826C100 29.7039 99.1254 28.8295 98.0469 28.8295ZM32.2453 10.2514C36.4439 6.05292 44.5971 6.69667 47.7445 7.1328C48.3045 11.0465 48.4867 18.7408 44.6105 22.6166C41.2826 25.9443 35.4705 26.2301 31.6359 25.9883L36.8191 20.8051C37.5818 20.0424 37.5818 18.8057 36.8191 18.0428C36.0563 17.2803 34.8199 17.2803 34.0568 18.0428L28.8635 23.2361C28.6219 19.1174 29.083 13.4137 32.2453 10.2514ZM9.09531 22.6166C4.89687 18.4184 5.54023 10.265 5.97676 7.11737C9.89023 6.55741 17.585 6.37519 21.4605 10.2514C24.7883 13.5789 25.0742 19.3912 24.8324 23.2264L19.6492 18.043C18.8863 17.2805 17.65 17.2805 16.8869 18.043C16.1242 18.8057 16.1242 20.0424 16.8869 20.8053L22.0801 25.9984C17.9615 26.24 12.2574 25.7791 9.09531 22.6166ZM62.3641 14.5512H77.0945V20.4523H62.3641V14.5512ZM24.0234 60.7264H39.4586V93.1877H24.0234V60.7264ZM43.3648 93.1879V42.5873H54.55V93.1877H43.3648V93.1879ZM58.4562 24.3586H81.0023V93.1877H58.4562V24.3586ZM96.0938 93.1879H84.9084V32.7357H96.0938V93.1879Z" fill="#BA9256"/>
</svg>
